<?xml version="1.0" encoding="utf-8" ?>
<svg baseProfile="full" height="100%" version="1.1" viewBox="0 0 1674.000000 624.206242" width="100%" xmlns="http://www.w3.org/2000/svg" xmlns:ev="http://www.w3.org/2001/xml-events" xmlns:xlink="http://www.w3.org/1999/xlink"><defs /><g id="0_C" transform="translate(104 402.0337912352069) scale(1 0.7613807750370212)"><path d="M 100 28 C 100 -13 0 -13 0 50 C 0 113 100 113 100 72 L 75 72 C 75 90 30 90 30 50 C 30 10 75 10 75 28 L 100 28" fill="green" /></g><g id="1_A" transform="translate(208 402.0337912352069) scale(1 0.7613807750370212)"><path d="M 0 100 L 33 0 L 66 0 L 100 100 L 75 100 L 66 75 L 33 75 L 25 100 L 0 100" fill="black" /><path d="M 41 55 L 50 25 L 58 55 L 41 55" fill="white" /></g><g id="2_I" transform="translate(312 470.4394944313587) scale(1 0.07732374307550263)"><path d="M 40 0 L 60 0 L 60 100 L 40 100 L 40 0" fill="black" /></g><g id="2_-" transform="translate(312 423.90787998547717) scale(1 0.4653161444588152)"><path d="M 12.5 40 H 87.5 V 60 H 12.5 V 40" fill="black" /></g><g id="2_W" transform="translate(312 330.2277663213811) scale(1 0.9368011366409605)"><path d="M 0 0 L 20 0 L 30 70 L 50 30 L 70 70 L 80 0 L 100 0 L 90 100 L 70 100 L 50 65 L 30 100 L 10 100 L 0 0" fill="black" /></g><g id="3_S" transform="translate(416 259.58493685601815) scale(1 2.185869318828908)"><path d="M92 26 A43 20 0 1 0 43 46 A42 23 0 1 1 9 68" fill="white" stroke="green" stroke-width="18" /></g><g id="4_R" transform="translate(520 470.4394944313587) scale(1 0.07732374307550263)"><path d="M 0 0 L 80 0 C 105 0 105 50 80 50 C 100 50 100 70 100 70 L 100 100 L 80 100 L 80 80 C 80 80 80 60 50 60 L 20 60 L 20 100 L 0 100 L 0 0" fill="blue" /><path d="M 20 15 L 70 15 C 80 15 80 35 70 35 L 20 35 L 20 15" fill="white" /></g><g id="4_-" transform="translate(520 432.14585398331695) scale(1 0.3829364044804174)"><path d="M 12.5 40 H 87.5 V 60 H 12.5 V 40" fill="black" /></g><g id="4_S" transform="translate(520 391.99403991765195) scale(1 0.4015181406566508)"><path d="M92 26 A43 20 0 1 0 43 46 A42 23 0 1 1 9 68" fill="white" stroke="green" stroke-width="18" /></g><g id="4_E" transform="translate(520 217.71303446974287) scale(1 1.74281005447909)"><path d="M 0 0 L 100 0 L 100 20 L 20 20 L 20 40 L 90 40 L 90 60 L 20 60 L 20 80 L 100 80 L 100 100 L 0 100 L 0 0" fill="red" /></g><g id="5_V" transform="translate(624 462.6613305902818) scale(1 0.1551053814862718)"><path d="M 0 0 L 20 0 L 50 80 L 80 0 L 100 0 L 60 100 L 40 100 L 0 0" fill="black" /></g><g id="5_Q" transform="translate(624 424.36769014224006) scale(1 0.3829364044804174)"><circle cx="50" cy="50" fill="purple" r="50" /><circle cx="50" cy="50" fill="white" r="32" /><path d="M 85 100 L 55 70 L 70 55 L 100 85 L 85 100" fill="purple" /></g><g id="5_-" transform="translate(624 350.55785525353224) scale(1 0.7380983488870785)"><path d="M 12.5 40 H 87.5 V 60 H 12.5 V 40" fill="black" /></g><g id="5_L" transform="translate(624 249.88105643688672) scale(1 1.006767988166455)"><path d="M 0 0 L 0 100 L 100 100 L 100 80 L 20 80 L 20 0 L 0 0" fill="black" /></g><g id="5_P" transform="translate(624 149.20425762024118) scale(1 1.006767988166455)"><path d="M 0 0 L 80 0 C 105 0 105 50 80 50 L 20 50 L 20 100 L 0 100 L 0 0" fill="black" /><path d="M 20 15 L 70 15 C 80 15 80 35 70 35 L 20 35 L 20 15" fill="white" /></g><g id="5_T" transform="translate(624 482.171868738909) scale(1 0.13582113790210235)"><path d="M 0 0 L 0 20 L 35 20 L 35 100 L 65 100 L 65 20 L 100 20 L 100 0 L 0 0" fill="green" /></g><g id="6_-" transform="translate(728 458.0959617060764) scale(1 0.2007590703283254)"><path d="M 12.5 40 H 87.5 V 60 H 12.5 V 40" fill="black" /></g><g id="6_S" transform="translate(728 384.28612681736854) scale(1 0.7380983488870785)"><path d="M92 26 A43 20 0 1 0 43 46 A42 23 0 1 1 9 68" fill="white" stroke="green" stroke-width="18" /></g><g id="6_G" transform="translate(728 278.9998946851906) scale(1 1.05286232132178)"><path d="M 100 28 C 100 -13 0 -13 0 50 C 0 113 100 113 100 72 L 100 48 L 55 48 L 55 72 L 75 72 C 75 90 30 90 30 50 C 30 10 75 5 75 28 L 100 28" fill="green" /></g><g id="7_L" transform="translate(832 384.49175507481294) scale(1 0.9368011366409605)"><path d="M 0 0 L 0 100 L 100 100 L 100 80 L 20 80 L 20 0 L 0 0" fill="black" /></g><g id="7_V" transform="translate(832 283.8149562581674) scale(1 1.006767988166455)"><path d="M 0 0 L 20 0 L 50 80 L 80 0 L 100 0 L 60 100 L 40 100 L 0 0" fill="black" /></g><g id="7_F" transform="translate(832 82.46135862487637) scale(1 2.01353597633291)"><path d="M 0 0 L 100 0 L 100 20 L 20 20 L 20 40 L 80 40 L 80 60 L 20 60 L 20 100 L 0 100 L 0 0" fill="black" /></g><g id="7_M" transform="translate(832 482.171868738909) scale(1 0.04289489885967427)"><path d="M 0 0 L 20 0 L 50 35 L 80 0 L 100 0 L 100 100 L 80 100 L 80 30 L 50 65 L 20 30 L 20 100 L 0 100 L 0 0" fill="black" /></g><g id="8_G" transform="translate(936 96.19918434973533) scale(1 3.8197268438917362)"><path d="M 100 28 C 100 -13 0 -13 0 50 C 0 113 100 113 100 72 L 100 48 L 55 48 L 55 72 L 75 72 C 75 90 30 90 30 50 C 30 10 75 5 75 28 L 100 28" fill="green" /></g><g id="9_-" transform="translate(1040 439.87822829086724) scale(1 0.3829364044804174)"><path d="M 12.5 40 H 87.5 V 60 H 12.5 V 40" fill="black" /></g><g id="9_Q" transform="translate(1040 366.06839340215936) scale(1 0.7380983488870785)"><circle cx="50" cy="50" fill="purple" r="50" /><circle cx="50" cy="50" fill="white" r="32" /><path d="M 85 100 L 55 70 L 70 55 L 100 85 L 85 100" fill="purple" /></g><g id="9_A" transform="translate(1040 265.3915945855139) scale(1 1.006767988166455)"><path d="M 0 100 L 33 0 L 66 0 L 100 100 L 75 100 L 66 75 L 33 75 L 25 100 L 0 100" fill="black" /><path d="M 41 55 L 50 25 L 58 55 L 41 55" fill="white" /></g><g id="9_M" transform="translate(1040 164.71479576886836) scale(1 1.006767988166455)"><path d="M 0 0 L 20 0 L 50 35 L 80 0 L 100 0 L 100 100 L 80 100 L 80 30 L 50 65 L 20 30 L 20 100 L 0 100 L 0 0" fill="black" /></g><g id="9_T" transform="translate(1040 482.171868738909) scale(1 0.15424232029373564)"><path d="M 0 0 L 0 20 L 35 20 L 35 100 L 65 100 L 65 20 L 100 20 L 100 0 L 0 0" fill="green" /></g><g id="10_-" transform="translate(1144 451.3421737941081) scale(1 0.2682969494480089)"><path d="M 12.5 40 H 87.5 V 60 H 12.5 V 40" fill="black" /></g><g id="10_G" transform="translate(1144 384.9323142737994) scale(1 0.6640985952030869)"><path d="M 100 28 C 100 -13 0 -13 0 50 C 0 113 100 113 100 72 L 100 48 L 55 48 L 55 72 L 75 72 C 75 90 30 90 30 50 C 30 10 75 5 75 28 L 100 28" fill="green" /></g><g id="10_P" transform="translate(1144 311.12247938509154) scale(1 0.7380983488870785)"><path d="M 0 0 L 80 0 C 105 0 105 50 80 50 L 20 50 L 20 100 L 0 100 L 0 0" fill="black" /><path d="M 20 15 L 70 15 C 80 15 80 35 70 35 L 20 35 L 20 15" fill="white" /></g><g id="11_Q" transform="translate(1248 462.6613305902818) scale(1 0.1551053814862718)"><circle cx="50" cy="50" fill="purple" r="50" /><circle cx="50" cy="50" fill="white" r="32" /><path d="M 85 100 L 55 70 L 70 55 L 100 85 L 85 100" fill="purple" /></g><g id="11_E" transform="translate(1248 444.06607523591083) scale(1 0.18595255354370996)"><path d="M 0 0 L 100 0 L 100 20 L 20 20 L 20 40 L 90 40 L 90 60 L 20 60 L 20 80 L 100 80 L 100 100 L 0 100 L 0 0" fill="red" /></g><g id="11_G" transform="translate(1248 343.38927641926534) scale(1 1.006767988166455)"><path d="M 100 28 C 100 -13 0 -13 0 50 C 0 113 100 113 100 72 L 100 48 L 55 48 L 55 72 L 75 72 C 75 90 30 90 30 50 C 30 10 75 5 75 28 L 100 28" fill="green" /></g><g id="12_A" transform="translate(1352 459.1008107654407) scale(1 0.19071057973468244)"><path d="M 0 100 L 33 0 L 66 0 L 100 100 L 75 100 L 66 75 L 33 75 L 25 100 L 0 100" fill="black" /><path d="M 41 55 L 50 25 L 58 55 L 41 55" fill="white" /></g><g id="12_L" transform="translate(1352 428.6336640027347) scale(1 0.30467146762705993)"><path d="M 0 0 L 0 100 L 100 100 L 100 80 L 20 80 L 20 0 L 0 0" fill="black" /></g><g id="12_-" transform="translate(1352 354.8238291140269) scale(1 0.7380983488870785)"><path d="M 12.5 40 H 87.5 V 60 H 12.5 V 40" fill="black" /></g><g id="12_W" transform="translate(1352 254.1470302973814) scale(1 1.006767988166455)"><path d="M 0 0 L 20 0 L 30 70 L 50 30 L 70 70 L 80 0 L 100 0 L 90 100 L 70 100 L 50 65 L 30 100 L 10 100 L 0 0" fill="black" /></g><g id="13_H" transform="translate(1456 470.4394944313587) scale(1 0.07732374307550263)"><path d="M 0 0 L 20 0 L 20 40 L 80 40 L 80 0 L 100 0 L 100 100 L 80 100 L 80 60 L 20 60 L 20 100 L 0 100 L 0 0" fill="blue" /></g><g id="13_Y" transform="translate(1456 462.7071201238084) scale(1 0.07732374307550263)"><path d="M 0 0 L 20 0 L 50 45 L 80 0 L 100 0 L 60 60 L 60 100 L 40 100 L 40 60 L 0 0" fill="green" /></g><g id="13_F" transform="translate(1456 454.66760162039554) scale(1 0.08039518503412901)"><path d="M 0 0 L 100 0 L 100 20 L 20 20 L 20 40 L 80 40 L 80 60 L 20 60 L 20 100 L 0 100 L 0 0" fill="black" /></g><g id="13_Q" transform="translate(1456 353.99080280375006) scale(1 1.006767988166455)"><circle cx="50" cy="50" fill="purple" r="50" /><circle cx="50" cy="50" fill="white" r="32" /><path d="M 85 100 L 55 70 L 70 55 L 100 85 L 85 100" fill="purple" /></g><g id="14_F" transform="translate(1560 402.0337912352069) scale(1 0.7613807750370212)"><path d="M 0 0 L 100 0 L 100 20 L 20 20 L 20 40 L 80 40 L 80 60 L 20 60 L 20 100 L 0 100 L 0 0" fill="black" /></g><g id="axes" stroke="#000000" stroke-width="1.5"><path d="M 100 480.171868738909 h 1568" /><path d="M 100 574.2062424866908 v -564.2062424866908" /><path d="M 100 574.2062424866908 h -5.0" /><text dominant-baseline="middle" fill="#000000" font-family="sans-serif" font-size="20pt" font-weight="normal" text-anchor="end" x="91.0" y="574.2062424866908">-0.5</text><path d="M 100 480.171868738909 h -5.0" /><text dominant-baseline="middle" fill="#000000" font-family="sans-serif" font-size="20pt" font-weight="normal" text-anchor="end" x="91.0" y="480.171868738909">0.0</text><path d="M 100 386.1374949911272 h -5.0" /><text dominant-baseline="middle" fill="#000000" font-family="sans-serif" font-size="20pt" font-weight="normal" text-anchor="end" x="91.0" y="386.1374949911272">0.5</text><path d="M 100 292.1031212433454 h -5.0" /><text dominant-baseline="middle" fill="#000000" font-family="sans-serif" font-size="20pt" font-weight="normal" text-anchor="end" x="91.0" y="292.1031212433454">1.0</text><path d="M 100 198.06874749556357 h -5.0" /><text dominant-baseline="middle" fill="#000000" font-family="sans-serif" font-size="20pt" font-weight="normal" text-anchor="end" x="91.0" y="198.06874749556357">1.5</text><path d="M 100 104.03437374778179 h -5.0" /><text dominant-baseline="middle" fill="#000000" font-family="sans-serif" font-size="20pt" font-weight="normal" text-anchor="end" x="91.0" y="104.03437374778179">2.0</text><path d="M 100 10.0 h -5.0" /><text dominant-baseline="middle" fill="#000000" font-family="sans-serif" font-size="20pt" font-weight="normal" text-anchor="end" x="91.0" y="10.0">2.5</text><text dominant-baseline="hanging" fill="#000000" font-family="sans-serif" font-size="20pt" font-weight="normal" text-anchor="middle" x="154.0" y="584.2062424866908">C</text><text dominant-baseline="hanging" fill="#000000" font-family="sans-serif" font-size="20pt" font-weight="normal" text-anchor="middle" x="258.0" y="584.2062424866908">A</text><text dominant-baseline="hanging" fill="#000000" font-family="sans-serif" font-size="20pt" font-weight="normal" text-anchor="middle" x="362.0" y="584.2062424866908">W</text><text dominant-baseline="hanging" fill="#000000" font-family="sans-serif" font-size="20pt" font-weight="normal" text-anchor="middle" x="466.0" y="584.2062424866908">S</text><text dominant-baseline="hanging" fill="#000000" font-family="sans-serif" font-size="20pt" font-weight="normal" text-anchor="middle" x="570.0" y="584.2062424866908">E</text><text dominant-baseline="hanging" fill="#000000" font-family="sans-serif" font-size="20pt" font-weight="normal" text-anchor="middle" x="674.0" y="584.2062424866908">T</text><text dominant-baseline="hanging" fill="#000000" font-family="sans-serif" font-size="20pt" font-weight="normal" text-anchor="middle" x="778.0" y="584.2062424866908">G</text><text dominant-baseline="hanging" fill="#000000" font-family="sans-serif" font-size="20pt" font-weight="normal" text-anchor="middle" x="882.0" y="584.2062424866908">L</text><text dominant-baseline="hanging" fill="#000000" font-family="sans-serif" font-size="20pt" font-weight="normal" text-anchor="middle" x="986.0" y="584.2062424866908">G</text><text dominant-baseline="hanging" fill="#000000" font-family="sans-serif" font-size="20pt" font-weight="normal" text-anchor="middle" x="1090.0" y="584.2062424866908">T</text><text dominant-baseline="hanging" fill="#000000" font-family="sans-serif" font-size="20pt" font-weight="normal" text-anchor="middle" x="1194.0" y="584.2062424866908">G</text><text dominant-baseline="hanging" fill="#000000" font-family="sans-serif" font-size="20pt" font-weight="normal" text-anchor="middle" x="1298.0" y="584.2062424866908">E</text><text dominant-baseline="hanging" fill="#000000" font-family="sans-serif" font-size="20pt" font-weight="normal" text-anchor="middle" x="1402.0" y="584.2062424866908">L</text><text dominant-baseline="hanging" fill="#000000" font-family="sans-serif" font-size="20pt" font-weight="normal" text-anchor="middle" x="1506.0" y="584.2062424866908">F</text><text dominant-baseline="hanging" fill="#000000" font-family="sans-serif" font-size="20pt" font-weight="normal" text-anchor="middle" x="1610.0" y="584.2062424866908">F</text><text dominant-baseline="hanging" fill="#000000" font-family="sans-serif" font-size="28pt" font-weight="normal" text-anchor="middle" transform="rotate(-90, 0, 292.1031212433454)" x="0" y="292.1031212433454" /></g></svg>