<?xml version="1.0" encoding="utf-8" ?>
<svg baseProfile="full" height="100%" version="1.1" viewBox="0 0 1466.000000 620.954324" width="100%" xmlns="http://www.w3.org/2000/svg" xmlns:ev="http://www.w3.org/2001/xml-events" xmlns:xlink="http://www.w3.org/1999/xlink"><defs /><g id="0_C" transform="translate(104 371.94131263844804) scale(1 0.5677443000084026)"><path d="M 100 28 C 100 -13 0 -13 0 50 C 0 113 100 113 100 72 L 75 72 C 75 90 30 90 30 50 C 30 10 75 10 75 28 L 100 28" fill="green" /></g><g id="1_A" transform="translate(208 371.94131263844804) scale(1 0.5677443000084026)"><path d="M 0 100 L 33 0 L 66 0 L 100 100 L 75 100 L 66 75 L 33 75 L 25 100 L 0 100" fill="black" /><path d="M 41 55 L 50 25 L 58 55 L 41 55" fill="white" /></g><g id="2_S" transform="translate(312 369.07145593649557) scale(1 0.596442867027927)"><path d="M92 26 A43 20 0 1 0 43 46 A42 23 0 1 1 9 68" fill="white" stroke="green" stroke-width="18" /></g><g id="3_S" transform="translate(416 316.56676025579014) scale(1 1.1214898238349817)"><path d="M92 26 A43 20 0 1 0 43 46 A42 23 0 1 1 9 68" fill="white" stroke="green" stroke-width="18" /></g><g id="4_L" transform="translate(520 425.46478336698686) scale(1 0.032509592723014076)"><path d="M 0 0 L 0 100 L 100 100 L 100 80 L 20 80 L 20 0 L 0 0" fill="black" /></g><g id="4_S" transform="translate(520 235.25182639722314) scale(1 1.9021295696976375)"><path d="M92 26 A43 20 0 1 0 43 46 A42 23 0 1 1 9 68" fill="white" stroke="green" stroke-width="18" /></g><g id="4_I" transform="translate(520 28.715742639288322) scale(1 2.0653608375793486)"><path d="M 40 0 L 60 0 L 60 100 L 40 100 L 40 0" fill="black" /></g><g id="5_-" transform="translate(624 413.74559608569945) scale(1 0.1497014655358886)"><path d="M 12.5 40 H 87.5 V 60 H 12.5 V 40" fill="black" /></g><g id="5_L" transform="translate(624 358.70728356646407) scale(1 0.5503831251923537)"><path d="M 0 0 L 0 100 L 100 100 L 100 80 L 20 80 L 20 0 L 0 0" fill="black" /></g><g id="5_F" transform="translate(624 283.63488806440546) scale(1 0.7507239550205862)"><path d="M 0 0 L 100 0 L 100 20 L 20 20 L 20 40 L 80 40 L 80 60 L 20 60 L 20 100 L 0 100 L 0 0" fill="black" /></g><g id="5_Y" transform="translate(624 208.56249256234685) scale(1 0.7507239550205862)"><path d="M 0 0 L 20 0 L 50 45 L 80 0 L 100 0 L 60 60 L 60 100 L 40 100 L 40 60 L 0 0" fill="green" /></g><g id="5_R" transform="translate(624 103.54980395311054) scale(1 1.0501268860923632)"><path d="M 0 0 L 80 0 C 105 0 105 50 80 50 C 100 50 100 70 100 70 L 100 100 L 80 100 L 80 80 C 80 80 80 60 50 60 L 20 60 L 20 100 L 0 100 L 0 0" fill="blue" /><path d="M 20 15 L 70 15 C 80 15 80 35 70 35 L 20 35 L 20 15" fill="white" /></g><g id="6_A" transform="translate(728 393.7115131028762) scale(1 0.35004229536412107)"><path d="M 0 100 L 33 0 L 66 0 L 100 100 L 75 100 L 66 75 L 33 75 L 25 100 L 0 100" fill="black" /><path d="M 41 55 L 50 25 L 58 55 L 41 55" fill="white" /></g><g id="6_P" transform="translate(728 338.67320058364083) scale(1 0.5503831251923537)"><path d="M 0 0 L 80 0 C 105 0 105 50 80 50 L 20 50 L 20 100 L 0 100 L 0 0" fill="black" /><path d="M 20 15 L 70 15 C 80 15 80 35 70 35 L 20 35 L 20 15" fill="white" /></g><g id="6_G" transform="translate(728 277.95380158143877) scale(1 0.6071939900220207)"><path d="M 100 28 C 100 -13 0 -13 0 50 C 0 113 100 113 100 72 L 100 48 L 55 48 L 55 72 L 75 72 C 75 90 30 90 30 50 C 30 10 75 5 75 28 L 100 28" fill="green" /></g><g id="6_S" transform="translate(728 432.7157426392883) scale(1 0.06397149790348422)"><path d="M92 26 A43 20 0 1 0 43 46 A42 23 0 1 1 9 68" fill="white" stroke="green" stroke-width="18" /></g><g id="7_S" transform="translate(832 397.1715876499379) scale(1 0.3154415498935039)"><path d="M92 26 A43 20 0 1 0 43 46 A42 23 0 1 1 9 68" fill="white" stroke="green" stroke-width="18" /></g><g id="7_G" transform="translate(832 333.971711736617) scale(1 0.6319987591332092)"><path d="M 100 28 C 100 -13 0 -13 0 50 C 0 113 100 113 100 72 L 100 48 L 55 48 L 55 72 L 75 72 C 75 90 30 90 30 50 C 30 10 75 5 75 28 L 100 28" fill="green" /></g><g id="7_Q" transform="translate(832 258.89931623455834) scale(1 0.7507239550205862)"><circle cx="50" cy="50" fill="purple" r="50" /><circle cx="50" cy="50" fill="white" r="32" /><path d="M 85 100 L 55 70 L 70 55 L 100 85 L 85 100" fill="purple" /></g><g id="7_V" transform="translate(832 183.82692073249973) scale(1 0.7507239550205862)"><path d="M 0 0 L 20 0 L 50 80 L 80 0 L 100 0 L 60 100 L 40 100 L 0 0" fill="black" /></g><g id="8_Y" transform="translate(936 394.6332930948353) scale(1 0.34082449544452953)"><path d="M 0 0 L 20 0 L 50 45 L 80 0 L 100 0 L 60 60 L 60 100 L 40 100 L 40 60 L 0 0" fill="green" /></g><g id="8_-" transform="translate(936 339.59498057559995) scale(1 0.5503831251923537)"><path d="M 12.5 40 H 87.5 V 60 H 12.5 V 40" fill="black" /></g><g id="8_R" transform="translate(936 264.5225850735414) scale(1 0.7507239550205862)"><path d="M 0 0 L 80 0 C 105 0 105 50 80 50 C 100 50 100 70 100 70 L 100 100 L 80 100 L 80 80 C 80 80 80 60 50 60 L 20 60 L 20 100 L 0 100 L 0 0" fill="blue" /><path d="M 20 15 L 70 15 C 80 15 80 35 70 35 L 20 35 L 20 15" fill="white" /></g><g id="8_W" transform="translate(936 189.45018957148278) scale(1 0.7507239550205862)"><path d="M 0 0 L 20 0 L 30 70 L 50 30 L 70 70 L 80 0 L 100 0 L 90 100 L 70 100 L 50 65 L 30 100 L 10 100 L 0 0" fill="black" /></g><g id="9_-" transform="translate(1040 413.74559608569945) scale(1 0.1497014655358886)"><path d="M 12.5 40 H 87.5 V 60 H 12.5 V 40" fill="black" /></g><g id="9_E" transform="translate(1040 362.62192176902) scale(1 0.5112367431667943)"><path d="M 0 0 L 100 0 L 100 20 L 20 20 L 20 40 L 90 40 L 90 60 L 20 60 L 20 80 L 100 80 L 100 100 L 0 100 L 0 0" fill="red" /></g><g id="10_A" transform="translate(1144 422.9498872584119) scale(1 0.05765855380876437)"><path d="M 0 100 L 33 0 L 66 0 L 100 100 L 75 100 L 66 75 L 33 75 L 25 100 L 0 100" fill="black" /><path d="M 41 55 L 50 25 L 58 55 L 41 55" fill="white" /></g><g id="10_G" transform="translate(1144 417.18403187753546) scale(1 0.05765855380876437)"><path d="M 100 28 C 100 -13 0 -13 0 50 C 0 113 100 113 100 72 L 100 48 L 55 48 L 55 72 L 75 72 C 75 90 30 90 30 50 C 30 10 75 5 75 28 L 100 28" fill="green" /></g><g id="10_L" transform="translate(1144 411.418176496659) scale(1 0.05765855380876437)"><path d="M 0 0 L 0 100 L 100 100 L 100 80 L 20 80 L 20 0 L 0 0" fill="black" /></g><g id="10_Q" transform="translate(1144 380.19049640707755) scale(1 0.3122768008958145)"><circle cx="50" cy="50" fill="purple" r="50" /><circle cx="50" cy="50" fill="white" r="32" /><path d="M 85 100 L 55 70 L 70 55 L 100 85 L 85 100" fill="purple" /></g><g id="11_F" transform="translate(1248 414.49488913922465) scale(1 0.14220853500063643)"><path d="M 0 0 L 100 0 L 100 20 L 20 20 L 20 40 L 80 40 L 80 60 L 20 60 L 20 100 L 0 100 L 0 0" fill="black" /></g><g id="11_Y" transform="translate(1248 374.75361103795353) scale(1 0.39741278101271155)"><path d="M 0 0 L 20 0 L 50 45 L 80 0 L 100 0 L 60 60 L 60 100 L 40 100 L 40 60 L 0 0" fill="green" /></g><g id="12_F" transform="translate(1352 371.94131263844804) scale(1 0.5677443000084026)"><path d="M 0 0 L 100 0 L 100 20 L 20 20 L 20 40 L 80 40 L 80 60 L 20 60 L 20 100 L 0 100 L 0 0" fill="black" /></g><g id="axes" stroke="#000000" stroke-width="1.5"><path d="M 100 430.7157426392883 h 1360" /><path d="M 100 570.9543235190511 v -560.9543235190511" /><path d="M 100 570.9543235190511 h -5.0" /><text dominant-baseline="middle" fill="#000000" font-family="sans-serif" font-size="20pt" font-weight="normal" text-anchor="end" x="91.0" y="570.9543235190511">-1.0</text><path d="M 100 430.7157426392883 h -5.0" /><text dominant-baseline="middle" fill="#000000" font-family="sans-serif" font-size="20pt" font-weight="normal" text-anchor="end" x="91.0" y="430.7157426392883">0.0</text><path d="M 100 290.47716175952553 h -5.0" /><text dominant-baseline="middle" fill="#000000" font-family="sans-serif" font-size="20pt" font-weight="normal" text-anchor="end" x="91.0" y="290.47716175952553">1.0</text><path d="M 100 150.23858087976276 h -5.0" /><text dominant-baseline="middle" fill="#000000" font-family="sans-serif" font-size="20pt" font-weight="normal" text-anchor="end" x="91.0" y="150.23858087976276">2.0</text><path d="M 100 10.0 h -5.0" /><text dominant-baseline="middle" fill="#000000" font-family="sans-serif" font-size="20pt" font-weight="normal" text-anchor="end" x="91.0" y="10.0">3.0</text><text dominant-baseline="hanging" fill="#000000" font-family="sans-serif" font-size="20pt" font-weight="normal" text-anchor="middle" x="154.0" y="580.9543235190511">C</text><text dominant-baseline="hanging" fill="#000000" font-family="sans-serif" font-size="20pt" font-weight="normal" text-anchor="middle" x="258.0" y="580.9543235190511">A</text><text dominant-baseline="hanging" fill="#000000" font-family="sans-serif" font-size="20pt" font-weight="normal" text-anchor="middle" x="362.0" y="580.9543235190511">S</text><text dominant-baseline="hanging" fill="#000000" font-family="sans-serif" font-size="20pt" font-weight="normal" text-anchor="middle" x="466.0" y="580.9543235190511">S</text><text dominant-baseline="hanging" fill="#000000" font-family="sans-serif" font-size="20pt" font-weight="normal" text-anchor="middle" x="570.0" y="580.9543235190511">I</text><text dominant-baseline="hanging" fill="#000000" font-family="sans-serif" font-size="20pt" font-weight="normal" text-anchor="middle" x="674.0" y="580.9543235190511">R</text><text dominant-baseline="hanging" fill="#000000" font-family="sans-serif" font-size="20pt" font-weight="normal" text-anchor="middle" x="778.0" y="580.9543235190511">S</text><text dominant-baseline="hanging" fill="#000000" font-family="sans-serif" font-size="20pt" font-weight="normal" text-anchor="middle" x="882.0" y="580.9543235190511">S</text><text dominant-baseline="hanging" fill="#000000" font-family="sans-serif" font-size="20pt" font-weight="normal" text-anchor="middle" x="986.0" y="580.9543235190511">Y</text><text dominant-baseline="hanging" fill="#000000" font-family="sans-serif" font-size="20pt" font-weight="normal" text-anchor="middle" x="1090.0" y="580.9543235190511">E</text><text dominant-baseline="hanging" fill="#000000" font-family="sans-serif" font-size="20pt" font-weight="normal" text-anchor="middle" x="1194.0" y="580.9543235190511">Q</text><text dominant-baseline="hanging" fill="#000000" font-family="sans-serif" font-size="20pt" font-weight="normal" text-anchor="middle" x="1298.0" y="580.9543235190511">Y</text><text dominant-baseline="hanging" fill="#000000" font-family="sans-serif" font-size="20pt" font-weight="normal" text-anchor="middle" x="1402.0" y="580.9543235190511">F</text><text dominant-baseline="hanging" fill="#000000" font-family="sans-serif" font-size="28pt" font-weight="normal" text-anchor="middle" transform="rotate(-90, 0, 290.47716175952553)" x="0" y="290.47716175952553" /></g></svg>